<?xml version="1.0" encoding="UTF-8"?>
<svg width="21px" height="16px" viewBox="0 0 21 16" version="1.1" xmlns="http://www.w3.org/2000/svg" xmlns:xlink="http://www.w3.org/1999/xlink">
    <!-- Generator: Sketch 62 (91390) - https://sketch.com -->
    <title>Fill 1</title>
    <desc>Created with Sketch.</desc>
    <g id="Page-1" stroke="none" stroke-width="1" fill="none" fill-rule="evenodd">
        <g id="צור-קשר" transform="translate(-707.000000, -624.000000)" fill="#17B794">
            <g id="Fill-1" transform="translate(707.000000, 624.000000)">
                <path d="M19.03125,14.6666667 L1.96875,14.6666667 C1.60666406,14.6666667 1.3125,14.3678333 1.3125,14 L1.3125,2.79361111 L10.0699922,10.5038889 C10.1936406,10.6126111 10.3468203,10.6666667 10.5,10.6666667 C10.6531797,10.6666667 10.8063594,10.6126111 10.9300078,10.5038889 L19.6875,2.79361111 L19.6875,14 C19.6875,14.3678333 19.3933359,14.6666667 19.03125,14.6666667 L19.03125,14.6666667 Z M19.03125,1.33333333 C19.1203359,1.33333333 19.2051563,1.35222222 19.2827031,1.385 L10.5,9.11783333 L1.71707812,1.385 C1.794625,1.35222222 1.87944531,1.33333333 1.96875,1.33333333 L19.03125,1.33333333 Z M19.03125,0 L1.96875,0 C0.88309375,0 0,0.897111111 0,2 L0,14 C0,15.1028889 0.88309375,16 1.96875,16 L19.03125,16 C20.1169062,16 21,15.1028889 21,14 L21,2 C21,0.897111111 20.1169062,0 19.03125,0 L19.03125,0 Z"></path>
            </g>
        </g>
    </g>
</svg>