<?xml version="1.0" encoding="UTF-8"?>
<svg width="24px" height="22px" viewBox="0 0 24 22" version="1.1" xmlns="http://www.w3.org/2000/svg" xmlns:xlink="http://www.w3.org/1999/xlink">
    <!-- Generator: Sketch 62 (91390) - https://sketch.com -->
    <title>Group 14</title>
    <desc>Created with Sketch.</desc>
    <g id="Page-1" stroke="none" stroke-width="1" fill="none" fill-rule="evenodd">
        <g id="צור-קשר" transform="translate(-705.000000, -657.000000)" fill="#17B794">
            <g id="Group-14" transform="translate(705.000000, 657.000000)">
                <g>
                    <path d="M11.4228563,2.0952381e-05 L11.4228563,3.84268762 L9.12424687,3.84268762 L9.12424687,1.64996857 L2.79612187,1.64996857 L2.79612187,3.84268762 L-1.875e-05,3.84268762 L-1.875e-05,21.9989733 L23.9999812,21.9989733 L23.9999812,3.84268762 L20.4990281,3.84268762 L20.4990281,2.0952381e-05 L11.4228563,2.0952381e-05 Z M12.8291062,3.84268762 L19.0927781,3.84268762 L19.0927781,1.57144952 L12.8291062,1.57144952 L12.8291062,3.84268762 Z M4.202325,17.2846876 L7.71795,17.2846876 L7.71795,3.22144952 L4.202325,3.22144952 L4.202325,17.2846876 Z M9.12424687,18.8561162 L9.12424687,5.41411619 L22.5937781,5.41411619 L22.5937781,20.4275448 L1.40623125,20.4275448 L1.40623125,5.41411619 L2.79612187,5.41411619 L2.79612187,18.8561162 L9.12424687,18.8561162 Z" id="Fill-1"></path>
                    <path d="M11.953125,10.2331429 L19.875,10.2331429 L19.875,8.26885714 L11.953125,8.26885714 L11.953125,10.2331429 Z M10.546875,11.8045714 L21.28125,11.8045714 L21.28125,6.69742857 L10.546875,6.69742857 L10.546875,11.8045714 Z" id="Fill-2"></path>
                    <polygon id="Fill-3" points="11.068125 14.4005714 12.4860938 14.4005714 12.4860938 12.8160476 11.068125 12.8160476"></polygon>
                    <polygon id="Fill-4" points="13.8689063 14.4005714 15.286875 14.4005714 15.286875 12.8160476 13.8689063 12.8160476"></polygon>
                    <polygon id="Fill-5" points="16.6696875 14.4005714 18.0876562 14.4005714 18.0876562 12.8160476 16.6696875 12.8160476"></polygon>
                    <polygon id="Fill-6" points="11.068125 16.8624762 12.4860938 16.8624762 12.4860938 15.2779524 11.068125 15.2779524"></polygon>
                    <polygon id="Fill-7" points="13.8689063 16.8624762 15.286875 16.8624762 15.286875 15.2779524 13.8689063 15.2779524"></polygon>
                    <polygon id="Fill-8" points="16.6696875 16.8624762 18.0876562 16.8624762 18.0876562 15.2779524 16.6696875 15.2779524"></polygon>
                    <polygon id="Fill-9" points="11.068125 19.324381 12.4860938 19.324381 12.4860938 17.7398571 11.068125 17.7398571"></polygon>
                    <polygon id="Fill-10" points="13.8689063 19.324381 15.286875 19.324381 15.286875 17.7398571 13.8689063 17.7398571"></polygon>
                    <polygon id="Fill-11" points="16.6696875 19.324381 18.0876562 19.324381 18.0876562 17.7398571 16.6696875 17.7398571"></polygon>
                    <polygon id="Fill-12" points="19.4470312 19.324381 20.865 19.324381 20.865 17.7398571 19.4470312 17.7398571"></polygon>
                    <polygon id="Fill-13" points="19.453125 17.025381 20.859375 17.025381 20.859375 12.8160476 19.453125 12.8160476"></polygon>
                </g>
            </g>
        </g>
    </g>
</svg>