<?xml version="1.0" encoding="UTF-8"?>
<svg width="20px" height="22px" viewBox="0 0 20 22" version="1.1" xmlns="http://www.w3.org/2000/svg" xmlns:xlink="http://www.w3.org/1999/xlink">
    <!-- Generator: Sketch 62 (91390) - https://sketch.com -->
    <title>telephone (1)</title>
    <desc>Created with Sketch.</desc>
    <defs>
        <polygon id="path-1" points="0 0.0265358811 19.972943 0.0265358811 19.972943 20.0000261 0 20.0000261"></polygon>
    </defs>
    <g id="Page-1" stroke="none" stroke-width="1" fill="none" fill-rule="evenodd">
        <g id="צור-קשר" transform="translate(-707.000000, -586.000000)">
            <g id="telephone-(1)" transform="translate(707.000000, 586.000000)">
                <g>
                    <g id="Group-3" transform="translate(0.000000, 2.000000)">
                        <mask id="mask-2" fill="white">
                            <use xlink:href="#path-1"></use>
                        </mask>
                        <g id="Clip-2"></g>
                        <path d="M16.7975287,12.5213793 C16.0758046,11.8088506 15.1746552,11.8088506 14.4574138,12.5213793 C13.9102874,13.064023 13.3632184,13.6063793 12.8252874,14.1582184 C12.678046,14.3099425 12.553908,14.342069 12.3747126,14.2408046 C12.0206897,14.0477586 11.6435632,13.8914943 11.3034483,13.68 C9.71712644,12.6823563 8.38833333,11.3995977 7.21149425,9.9558046 C6.62758621,9.23856322 6.10787356,8.4708046 5.74465517,7.60649425 C5.67126437,7.43183908 5.68494253,7.31689655 5.82747126,7.17431034 C6.3745977,6.6454023 6.90798851,6.10298851 7.44591954,5.5604023 C8.19528736,4.80632184 8.19528736,3.92362069 7.44137931,3.165 C7.01373563,2.73287356 6.58609195,2.30988506 6.15862069,1.87775862 C5.71724138,1.43637931 5.2804023,0.990287356 4.83431034,0.553448276 C4.11258621,-0.149885057 3.21143678,-0.149885057 2.49413793,0.55816092 C1.94235632,1.10074713 1.41367816,1.65706897 0.852873563,2.19022989 C0.33316092,2.68235632 0.0711494253,3.28465517 0.0159195402,3.98804598 C-0.0713793103,5.13298851 0.209022989,6.21321839 0.604597701,7.26614943 C1.41367816,9.44557471 2.64591954,11.3811494 4.14017241,13.1558046 C6.15862069,15.5559195 8.56770115,17.4547126 11.3860345,18.8248276 C12.6551149,19.4408621 13.97,19.9145402 15.3998276,19.9926437 C16.3837931,20.0478736 17.238908,19.7995977 17.9240805,19.0317816 C18.393046,18.5075862 18.9217241,18.0294253 19.4183333,17.5283333 C20.154023,16.7834483 20.1585057,15.8823563 19.4275287,15.1466667 C18.554023,14.2684483 17.6758046,13.3948851 16.7975287,12.5213793 Z" id="Fill-1" fill="#17B794" mask="url(#mask-2)"></path>
                    </g>
                    <path d="M16.2223446,11 L18,10.6899268 C17.7205251,9.02104486 16.9496658,7.50987632 15.7789544,6.30871946 C14.5409186,5.04368962 12.9752329,4.2461387 11.2505699,4 L11,5.82628761 C12.3345062,6.01833733 13.5485147,6.63368408 14.5073166,7.61319303 C15.4129453,8.53861301 16.0054369,9.71041782 16.2223446,11 Z" id="Fill-4" fill="#17B794"></path>
                    <path d="M17.1010045,3.02059415 C15.4886222,1.36668806 13.4486146,0.322258832 11.1968051,0 L11,1.44040962 C12.9453897,1.72005651 14.7089713,2.62456523 16.101793,4.04963843 C17.4225632,5.40458151 18.2892625,7.11687275 18.6034409,9 L20,8.7552483 C19.6329775,6.57335217 18.6300285,4.59315901 17.1010045,3.02059415 Z" id="Fill-5" fill="#17B794"></path>
                </g>
            </g>
        </g>
    </g>
</svg>